# xmcd
#
# Track frame offsets:
#	150
#	14200
#	29152
#	44545
#	67502
#	93004
#	105743
#	129015
#	142834
#	155927
#	175734
#
# Disc length: 2517 seconds
#
# Revision: 0
# Processed by: cddbd v1.5.1PL2 Copyright (c) Steve Scherf et al.
# Submitted via: EasyCDDAExtractor 8.0.1.1
#
DISCID=8c09d30b
DTITLE=Mary Broadcast Band - 20M+B+B06
DYEAR=2006
DGENRE=Blues
TTITLE0=Diamonds In The Sky
TTITLE1=Baby, Baby, Baby
TTITLE2=Angel
TTITLE3=Sally
TTITLE4=For The Good Times
TTITLE5=One More Time - Remix
TTITLE6=Even When I Love You
TTITLE7=Downtown
TTITLE8=Best Man
TTITLE9=Nobody Knows Me Like My Baby
TTITLE10=Is It Real
EXTD=
EXTT0=
EXTT1=
EXTT2=
EXTT3=
EXTT4=
EXTT5=
EXTT6=
EXTT7=
EXTT8=
EXTT9=
EXTT10=
PLAYORDER=
